/* XPM */
static char *result[] = {
/* columns rows colors chars-per-pixel */
"32 32 196 2 ",
"   c #EFEB03",
".  c #FFE703",
"X  c #FFE404",
"o  c #F2EB00",
"O  c #F5E901",
"+  c #F0EF00",
"@  c #F6ED00",
"#  c #F6EF00",
"$  c #F7EF00",
"%  c #F3EB05",
"&  c #F7E807",
"*  c #F2EF04",
"=  c #F7EF06",
"-  c #F9E900",
";  c #F8EB00",
":  c #FFE800",
">  c #FFE801",
",  c #FEEA00",
"<  c #FFEB00",
"1  c #F9ED00",
"2  c #FAED00",
"3  c #F8EE00",
"4  c #F8EF00",
"5  c #FAEF00",
"6  c #FBEF00",
"7  c #F8EC02",
"8  c #FDEC00",
"9  c #FFEC00",
"0  c #FEED00",
"q  c #FFED00",
"w  c #FCEE00",
"e  c #FDEE00",
"r  c #FCEF00",
"t  c #FFEE00",
"y  c #FEEF00",
"u  c #FFED03",
"i  c #FCEF03",
"p  c #FBEA06",
"a  c #FFEB04",
"s  c #FEE906",
"d  c #FFEA07",
"f  c #FAEE06",
"g  c #FBEF07",
"h  c #FFEC05",
"j  c #FFEE04",
"k  c #FFEF04",
"l  c #FDEC06",
"z  c #FFEC07",
"x  c #FFED07",
"c  c #FCEE07",
"v  c #FFEF06",
"b  c #F4ED09",
"n  c #F7EE0B",
"m  c #FDEB0B",
"M  c #FBEE0A",
"N  c #FEED09",
"B  c #FFED0A",
"V  c #FDEF0A",
"C  c #FFEE0B",
"Z  c #F9E90D",
"A  c #FAEA0E",
"S  c #FBEB0F",
"D  c #FDE90F",
"F  c #F9ED0D",
"G  c #FBEF0F",
"H  c #FEEC0C",
"J  c #FFEC0C",
"K  c #FEEF0C",
"L  c #FFEF0F",
"P  c #E5F700",
"I  c #E6F407",
"U  c #EEF100",
"Y  c #EBF600",
"T  c #F0F000",
"R  c #F3F300",
"E  c #F5F301",
"W  c #F7F200",
"Q  c #F6F300",
"!  c #F7F201",
"~  c #F0F600",
"^  c #F7F500",
"/  c #F7F502",
"(  c #F7F004",
")  c #F2F504",
"_  c #F7F405",
"`  c #F8F101",
"'  c #FBF000",
"]  c #F8F200",
"[  c #F9F300",
"{  c #FBF200",
"}  c #FBF201",
"|  c #F8F103",
" . c #FBF202",
".. c #FAF303",
"X. c #FDF100",
"o. c #FFF000",
"O. c #FFF100",
"+. c #FDF200",
"@. c #FEF200",
"#. c #FFF200",
"$. c #FFF300",
"%. c #FFF201",
"&. c #FDF002",
"*. c #FCF102",
"=. c #FFF102",
"-. c #F8F500",
";. c #FAF500",
":. c #FBF500",
">. c #FBF700",
",. c #F9F403",
"<. c #FBF503",
"1. c #FCF400",
"2. c #FDF400",
"3. c #FFF400",
"4. c #FFF500",
"5. c #FEF600",
"6. c #FFF600",
"7. c #FFF700",
"8. c #FEF502",
"9. c #FAF005",
"0. c #F8F007",
"q. c #FEF105",
"w. c #FDF306",
"e. c #FFF206",
"r. c #F9F405",
"t. c #F8F604",
"y. c #F9F704",
"u. c #FFF404",
"i. c #FEF504",
"p. c #FFF406",
"a. c #FFF507",
"s. c #F1FA00",
"d. c #F2F803",
"f. c #F6F800",
"g. c #F1FB07",
"h. c #FBF800",
"j. c #FAFA02",
"k. c #FCF800",
"l. c #FAF907",
"z. c #F4F009",
"x. c #F6F308",
"c. c #F7F00A",
"v. c #F4F10E",
"b. c #F9F108",
"n. c #F9F309",
"m. c #F9F10B",
"M. c #FBF30A",
"N. c #FCF008",
"B. c #FDF109",
"V. c #FFF108",
"C. c #FEF009",
"Z. c #FEF208",
"A. c #FFF209",
"S. c #FBF408",
"D. c #F8F50A",
"F. c #F8F60B",
"G. c #FDF60A",
"H. c #FBF20F",
"J. c #FFF00C",
"K. c #FEF10C",
"L. c #FFF10C",
"P. c #FFF20D",
"I. c #FEF30D",
"U. c #FEF10F",
"Y. c #FAF60F",
"T. c #FFF50C",
"R. c #FFF50D",
"E. c #FEF60D",
"W. c #F5F90E",
"Q. c #F8FF08",
"!. c #FBFF0E",
"~. c #FFFF0D",
"^. c #EFEF11",
"/. c #FAE512",
"(. c #FBED11",
"). c #FCEC10",
"_. c #FDEF10",
"`. c #FDEF12",
"'. c #FCEB15",
"]. c #FDE916",
"[. c #FFEC14",
"{. c #FFED1A",
"}. c #F6F416",
"|. c #FAF110",
" X c #FAF013",
".X c #FCF010",
"XX c #FFF311",
"oX c #FCF312",
"OX c #F9F412",
"+X c #FFF412",
"@X c #FDF612",
"#X c #FFF216",
"$X c #FAF911",
"%X c #F8F618",
"&X c #FFEE24",
"*X c None",
/* pixels */
"*X*X*X*X*X*X*X*X*X*X*X*X*X*X*X*X*X*X*X*X*X*X*X*X*X*X*X*X*X*X*X*X",
"*X*X*X*X*X*X*X*X*X*X*X*X*X*X*X*X*X*X*X*X*X*X*X*X*X*X*X*X*X*X*X*X",
"*X*X*X*X*X*X*X*X*X*X*X*X*X*X*X*X*X*X*X*X*X*X*X*X*X*X*X*X*X*X*X*X",
"*X*X*X*X*X*X*X*X*X*X*X*X*X*X*X*X*X*X*X*X*X*X*X*X*X*X*X*X*X*X*X*X",
"*X*X*X*X*X*X*X*X*X*X*X*X*X*X*X*X*X*X*X*X*X*X*X*X*X*X*X*X*X*X*X*X",
"*X*X*X*X*X*X*X*X*X*X*X*X$X X$ C.C.$  X$X*X*X*X*X*X*X*X*X*X*X*X*X",
"*X*X*X*X*X*X*X*X*X*X*X!.e #.A #.#.A #.e !.*X*X*X*X*X*X*X*X*X*X*X",
"*X*X*X*X*X*X*X*X*X*X*X) /.a.n ( ( 7.7./.) *X*X*X*X*X*X*X*X*X*X*X",
"*X*X*X*X*X*X*X*Xr.F X.e.q.& V `.] 7.K.$.B y v K *X*X*X*X*X*X*X*X",
"*X*X*X*X*X*XQ 0.G p.N.o { P.6.T 7.C c ).(. .M.h.R y.*X*X*X*X*X*X",
"*X*X*X*X*X*X5 < 6 B.&XU...F.Y.oX3.3.u.i.8.<.} 9.. X *X*X*X*X*X*X",
"*X*X*X*X*X*X~ c.k # XX#X@ Y ^.< 4 = b.1._.&.t a - p *X*X*X*X*X*X",
"*X*X*X*X*Xg.,.  i { ` *.; R.m.@XV q.@.+.'.r [.=.E k.*X*X*X*X*X*X",
"*X*X*X*X' x J E.H J.* s.g : O *XN o.{.L L.w.n./ +X, W.f.*X*X*X*X",
"*X*X*X*X#.8 2.[ J.4.z.%X% f P *Xd.v.W r =.P.>._ =.a Z 9 *X*X*X*X",
"*X*X*X*XG.S.I.].S ^ .Xt b *X*X*X*X*XQ.| D z h l ` T.6 q *X*X*X*X",
"*X*X*X*X6.j 0 V.D.9 1 *X*X*X*X*X*X*X*X*X*Xs H.l.V.0 j 6.*X*X*X*X",
"*X*X*X*X|.:.! }.*.OXI *X*X*X*X*X*X*X*X*X*X~.2 9 }.! :.|.*X*X*X*X",
"*X*X*X*X3 A.d u w *X*X*X*X*X*X*X*X*X*X*X*X*XM > u d A.3 *X*X*X*X",
"*X*X*X*X+ j.x.t.U *X*X*X*X*X*X*X*X*X*X*X*X*XW.-.t.x.j.+ *X*X*X*X",
"*X*X*X*X7 Z.m 0 *X*X*X*X*X*X*X*X*X*X*X*X*X*X*X*X0 m Z.7 *X*X*X*X",
"*X*X*X*X;.5.%.O.*X*X*X*X*X*X*X*X*X*X*X*X*X*X*X*XO.%.5.;.*X*X*X*X",
"*X*X*X*X*X*X*X*X*X*X*X*X*X*X*X*X*X*X*X*X*X*X*X*X*X*X*X*X*X*X*X*X",
"*X*X*X*X*X*X*X*X*X*X*X*X*X*X*X*X*X*X*X*X*X*X*X*X*X*X*X*X*X*X*X*X",
"*X*X*X*X*X*X*X*X*X*X*X*X*X*X*X*X*X*X*X*X*X*X*X*X*X*X*X*X*X*X*X*X",
"*X*X*X*X*X*X*X*X*X*X*X*X*X*X*X*X*X*X*X*X*X*X*X*X*X*X*X*X*X*X*X*X",
"*X*X*X*X*X*X*X*X*X*X*X*X*X*X*X*X*X*X*X*X*X*X*X*X*X*X*X*X*X*X*X*X",
"*X*X*X*X*X*X*X*X*X*X*X*X*X*X*X*X*X*X*X*X*X*X*X*X*X*X*X*X*X*X*X*X",
"*X*X*X*X*X*X*X*X*X*X*X*X*X*X*X*X*X*X*X*X*X*X*X*X*X*X*X*X*X*X*X*X",
"*X*X*X*X*X*X*X*X*X*X*X*X*X*X*X*X*X*X*X*X*X*X*X*X*X*X*X*X*X*X*X*X",
"*X*X*X*X*X*X*X*X*X*X*X*X*X*X*X*X*X*X*X*X*X*X*X*X*X*X*X*X*X*X*X*X",
"*X*X*X*X*X*X*X*X*X*X*X*X*X*X*X*X*X*X*X*X*X*X*X*X*X*X*X*X*X*X*X*X"
};
