/* XPM */
static char *_7bdeb64a83d4ac49d162c26f7ce6c4dFJ32K9oY6nBa5doz[] = {
/* columns rows colors chars-per-pixel */
"32 32 2 1 ",
"  c None",
". c #0FFD00",
/* pixels */
"                                ",
"                                ",
"                                ",
"                                ",
"                                ",
"       ..              ..       ",
"       ..              ..       ",
"         ...        ...         ",
"         ...        ...         ",
"         ...        ...         ",
" ...   ..................   ... ",
" ...   ..................   ... ",
" ...   ..................   ... ",
" ...   ..   ........   ..   ... ",
" ...   ..   ........   ..   ... ",
" ........   ........   ........ ",
" .............................. ",
" .............................. ",
"    ........................    ",
"    ........................    ",
"       ..................       ",
"       ..              ..       ",
"       ..              ..       ",
"       ..              ..       ",
"         ......  ......         ",
"         ......  ......         ",
"                                ",
"                                ",
"                                ",
"                                ",
"                                ",
"                                "
};
