/* XPM */
static char *cc595dad1e2f487687c4dfadf2708e36NktTTQF7hMhB5Z5u[] = {
/* columns rows colors chars-per-pixel */
"32 32 196 2 ",
"   c None",
".  c #EFEB03",
"X  c #FFE703",
"o  c #FFE404",
"O  c #F2EB00",
"+  c #F5E901",
"@  c #F0EF00",
"#  c #F6ED00",
"$  c #F6EF00",
"%  c #F7EF00",
"&  c #F3EB05",
"*  c #F7E807",
"=  c #F2EF04",
"-  c #F7EF06",
";  c #F9E900",
":  c #F8EB00",
">  c #FFE800",
",  c #FFE801",
"<  c #FEEA00",
"1  c #FFEB00",
"2  c #F9ED00",
"3  c #FAED00",
"4  c #F8EE00",
"5  c #F8EF00",
"6  c #FAEF00",
"7  c #FBEF00",
"8  c #F8EC02",
"9  c #FDEC00",
"0  c #FFEC00",
"q  c #FEED00",
"w  c #FFED00",
"e  c #FCEE00",
"r  c #FDEE00",
"t  c #FCEF00",
"y  c #FFEE00",
"u  c #FEEF00",
"i  c #FFED03",
"p  c #FCEF03",
"a  c #FBEA06",
"s  c #FFEB04",
"d  c #FEE906",
"f  c #FFEA07",
"g  c #FAEE06",
"h  c #FBEF07",
"j  c #FFEC05",
"k  c #FFEE04",
"l  c #FFEF04",
"z  c #FDEC06",
"x  c #FFEC07",
"c  c #FFED07",
"v  c #FCEE07",
"b  c #FFEF06",
"n  c #F4ED09",
"m  c #F7EE0B",
"M  c #FDEB0B",
"N  c #FBEE0A",
"B  c #FEED09",
"V  c #FFED0A",
"C  c #FDEF0A",
"Z  c #FFEE0B",
"A  c #F9E90D",
"S  c #FAEA0E",
"D  c #FBEB0F",
"F  c #FDE90F",
"G  c #F9ED0D",
"H  c #FBEF0F",
"J  c #FEEC0C",
"K  c #FFEC0C",
"L  c #FEEF0C",
"P  c #FFEF0F",
"I  c #E5F700",
"U  c #E6F407",
"Y  c #EEF100",
"T  c #EBF600",
"R  c #F0F000",
"E  c #F3F300",
"W  c #F5F301",
"Q  c #F7F200",
"!  c #F6F300",
"~  c #F7F201",
"^  c #F0F600",
"/  c #F7F500",
"(  c #F7F502",
")  c #F7F004",
"_  c #F2F504",
"`  c #F7F405",
"'  c #F8F101",
"]  c #FBF000",
"[  c #F8F200",
"{  c #F9F300",
"}  c #FBF200",
"|  c #FBF201",
" . c #F8F103",
".. c #FBF202",
"X. c #FAF303",
"o. c #FDF100",
"O. c #FFF000",
"+. c #FFF100",
"@. c #FDF200",
"#. c #FEF200",
"$. c #FFF200",
"%. c #FFF300",
"&. c #FFF201",
"*. c #FDF002",
"=. c #FCF102",
"-. c #FFF102",
";. c #F8F500",
":. c #FAF500",
">. c #FBF500",
",. c #FBF700",
"<. c #F9F403",
"1. c #FBF503",
"2. c #FCF400",
"3. c #FDF400",
"4. c #FFF400",
"5. c #FFF500",
"6. c #FEF600",
"7. c #FFF600",
"8. c #FFF700",
"9. c #FEF502",
"0. c #FAF005",
"q. c #F8F007",
"w. c #FEF105",
"e. c #FDF306",
"r. c #FFF206",
"t. c #F9F405",
"y. c #F8F604",
"u. c #F9F704",
"i. c #FFF404",
"p. c #FEF504",
"a. c #FFF406",
"s. c #FFF507",
"d. c #F1FA00",
"f. c #F2F803",
"g. c #F6F800",
"h. c #F1FB07",
"j. c #FBF800",
"k. c #FAFA02",
"l. c #FCF800",
"z. c #FAF907",
"x. c #F4F009",
"c. c #F6F308",
"v. c #F7F00A",
"b. c #F4F10E",
"n. c #F9F108",
"m. c #F9F309",
"M. c #F9F10B",
"N. c #FBF30A",
"B. c #FCF008",
"V. c #FDF109",
"C. c #FFF108",
"Z. c #FEF009",
"A. c #FEF208",
"S. c #FFF209",
"D. c #FBF408",
"F. c #F8F50A",
"G. c #F8F60B",
"H. c #FDF60A",
"J. c #FBF20F",
"K. c #FFF00C",
"L. c #FEF10C",
"P. c #FFF10C",
"I. c #FFF20D",
"U. c #FEF30D",
"Y. c #FEF10F",
"T. c #FAF60F",
"R. c #FFF50C",
"E. c #FFF50D",
"W. c #FEF60D",
"Q. c #F5F90E",
"!. c #F8FF08",
"~. c #FBFF0E",
"^. c #FFFF0D",
"/. c #EFEF11",
"(. c #FAE512",
"). c #FBED11",
"_. c #FCEC10",
"`. c #FDEF10",
"'. c #FDEF12",
"]. c #FCEB15",
"[. c #FDE916",
"{. c #FFEC14",
"}. c #FFED1A",
"|. c #F6F416",
" X c #FAF110",
".X c #FAF013",
"XX c #FCF010",
"oX c #FFF311",
"OX c #FCF312",
"+X c #F9F412",
"@X c #FFF412",
"#X c #FDF612",
"$X c #FFF216",
"%X c #FAF911",
"&X c #F8F618",
"*X c #FFEE24",
/* pixels */
"                                                                ",
"                                                                ",
"                                                                ",
"                                                                ",
"                          / r r l.XX% @ p >.                    ",
"                          Q.S p b 8.U.j.Z.>.                    ",
"                  1.o a l.< s L.r Q s ) M $.                    ",
"                  ^ o ; Q @X$.Q Z.|.b ` r $.                    ",
"                L j.0.s $.` ` s z.< < >.                        ",
"                b N.$.r {.c.j.b J.p N Q.                        ",
"                r 0.1.$.$.Z.L.b s ~.                            ",
"            ~._ Z ).8.).[.L.$.F                                 ",
"          %Xr (.$.).e.>.$.L r )                                 ",
"          .X$.8.L.b $.N.$.}.Q !.                                ",
"          % S 8.8.Z $.- w.r b.                                  ",
"          Z.$.) Q 8.8.% N Z f.                                  ",
"          Z $.% '.R XX< @X                                      ",
"          % S N.Z 8.%X/.J.+ I                                   ",
"          .X$.U.* L.G.T W.< g                                   ",
"          %Xr (.w.[ [ % + g - n                                 ",
"            ~._ w.@ XX$X$.d.&Xr                                 ",
"                $.Z.*XXX[ = n XXp U                             ",
"                N e.Z.Q [ L.8./ < +X                            ",
"                m.N p b r F L ).c.$.p Y                         ",
"                  0.r N . W.[ [.Z.|.r ` r $.                    ",
"                  Q p T [ L 8.L.r [ M c.F $.                    ",
"                        h.Z < 1.b >.Z.j.w.8.                    ",
"                          [ $.U.8.J.p @ % >.                    ",
"                                                                ",
"                                                                ",
"                                                                ",
"                                                                "
};
