/* XPM */
static char *_dd8e2952fb2404e97e7b529aa25883f61aVLbFm6Yuvvvpz[] = {
/* columns rows colors chars-per-pixel */
"32 32 2 1 ",
"  c None",
". c #0FFD00",
/* pixels */
"                                ",
"                                ",
"                                ",
"                                ",
"                                ",
"       ..              ..       ",
"       ..              ..       ",
"         ...        ...         ",
"         ...        ...         ",
"         ...        ...         ",
"       ..................       ",
"       ..................       ",
"       ..................       ",
"    .....   ........   .....    ",
"    .....   ........   .....    ",
"    .....   ........   .....    ",
" .............................. ",
" .............................. ",
" ...   ..................   ... ",
" ...   ..................   ... ",
" ...   ..................   ... ",
" ...   ..              ..   ... ",
" ...   ..              ..   ... ",
" ...   ..              ..   ... ",
"         ......  ......         ",
"         ......  ......         ",
"                                ",
"                                ",
"                                ",
"                                ",
"                                ",
"                                "
};
